<svg width="32" height="33" viewBox="0 0 32 33" fill="none" xmlns="http://www.w3.org/2000/svg">
<g id="Frame 1000005441">
<path id="Vector" d="M22.6248 15.6349C24.1996 16.5847 25.3777 17.9906 25.3822 19.6784C25.3882 21.797 24.6763 23.8217 24.0774 25.8285C23.7245 27.0108 22.7153 30.0837 24.7834 30.3565C26.9932 30.6487 28.9737 26.0328 29.6525 24.1646C31.1187 20.1301 31.5939 17.515 30.9196 13.0317C30.7597 11.9702 29.8396 9.00918 29.0989 7.24986C28.1758 5.05818 26.6553 2.84413 24.9614 3.61196C23.9296 4.08012 24.4757 5.96914 24.898 7.99385C25.0368 8.66328 25.3928 9.94251 25.3641 11.1129C25.2796 14.466 23.9221 18.1203 18.4164 19.0134C17.6803 19.1327 16.2533 19.2057 15.1974 19.1237C13.517 18.9955 11.8804 18.5035 10.4459 17.6298C7.64479 15.9227 7.16361 13.7668 7.02785 11.1144C6.96751 9.94549 7.29031 8.65731 7.41249 7.9849C7.78205 5.94976 8.27983 4.04732 7.23601 3.606C5.52245 2.8814 3.96426 5.15509 3.04262 7.34678C2.23411 9.27456 1.75896 11.4901 1.54024 12.7798C0.780002 17.2496 1.28683 20.2718 2.85558 24.2675C3.58263 26.1192 5.45005 30.6845 7.65082 30.3386C9.71131 30.0136 8.62375 26.9661 8.24061 25.7942C7.59049 23.8023 7.12589 21.797 7.07913 19.6784C7.03992 17.9235 8.14709 16.3088 10.2362 15.1548C10.2347 15.1548 16.1055 11.7033 22.6248 15.6349Z" stroke="#177AA1" stroke-miterlimit="10"/>
</g>
</svg>
